<?xml version="1.0" encoding="UTF-8" standalone="no"?>
<!DOCTYPE svg PUBLIC "-//W3C//DTD SVG 1.1//EN" "http://www.w3.org/Graphics/SVG/1.1/DTD/svg11.dtd">
<svg width="100%" height="100%" viewBox="0 0 4742 4742" version="1.1" xmlns="http://www.w3.org/2000/svg" xmlns:xlink="http://www.w3.org/1999/xlink" xml:space="preserve" xmlns:serif="http://www.serif.com/" style="fill-rule:evenodd;clip-rule:evenodd;stroke-linecap:round;stroke-linejoin:round;stroke-miterlimit:1.5;">
    <g transform="matrix(5.55556,0,0,5.55556,-308.558,-406.944)">
        <g transform="matrix(1,0,0,1,-339.923,-0.4232)">
            <g transform="matrix(1.0303,0,0,1.0303,397.213,75.4232)">
                <circle cx="412.5" cy="412.5" r="412.5" style="stroke:white;stroke-width:3.4px;"/>
            </g>
            <g transform="matrix(1,0,0,1,-10.7295,36.5795)">
                <g transform="matrix(1.26697,-0.339483,0.339483,1.26697,81.3396,533.026)">
                    <path d="M327.5,76L341.532,119.186L386.941,119.186L350.204,145.877L364.237,189.064L327.5,162.373L290.763,189.064L304.796,145.877L268.059,119.186L313.468,119.186L327.5,76Z" style="fill:none;stroke:white;stroke-width:2.67px;"/>
                </g>
                <g transform="matrix(0.866812,-0.232262,0.232262,0.866812,227.24,553.332)">
                    <path d="M327.5,76L341.532,119.186L386.941,119.186L350.204,145.877L364.237,189.064L327.5,162.373L290.763,189.064L304.796,145.877L268.059,119.186L313.468,119.186L327.5,76Z" style="fill:none;stroke:white;stroke-width:3.9px;"/>
                </g>
            </g>
            <g transform="matrix(1,0,0,1,603.562,-127.732)">
                <g transform="matrix(1.26697,-0.339483,0.339483,1.26697,81.3396,533.026)">
                    <path d="M327.5,76L341.532,119.186L386.941,119.186L350.204,145.877L364.237,189.064L327.5,162.373L290.763,189.064L304.796,145.877L268.059,119.186L313.468,119.186L327.5,76Z" style="fill:none;stroke:white;stroke-width:2.67px;"/>
                </g>
                <g transform="matrix(0.866812,-0.232262,0.232262,0.866812,227.24,553.332)">
                    <path d="M327.5,76L341.532,119.186L386.941,119.186L350.204,145.877L364.237,189.064L327.5,162.373L290.763,189.064L304.796,145.877L268.059,119.186L313.468,119.186L327.5,76Z" style="fill:none;stroke:white;stroke-width:3.9px;"/>
                </g>
            </g>
            <g transform="matrix(1,0,0,1,-10,0)">
                <g transform="matrix(1,0,0,1,427.423,87.9232)">
                    <path d="M273,423C265.16,414.889 276.428,408.194 283,416" style="fill:none;stroke:white;stroke-width:3.5px;"/>
                </g>
                <g transform="matrix(1,0,0,1,427.423,87.9232)">
                    <path d="M283,416C294.997,414.307 305.7,416.529 315,423" style="fill:none;stroke:white;stroke-width:3.5px;"/>
                </g>
                <g transform="matrix(1,0,0,1,427.423,87.9232)">
                    <path d="M315,423L315,427" style="fill:none;stroke:white;stroke-width:3.5px;"/>
                </g>
                <g transform="matrix(1,0,0,1,427.423,87.9232)">
                    <path d="M315,427C324.709,432.892 328.783,437.797 319,443.719" style="fill:none;stroke:white;stroke-width:3.5px;"/>
                </g>
                <g transform="matrix(1,0,0,1,427.423,87.9232)">
                    <path d="M319,443.719C317.588,439.148 318.431,435.318 322.415,432.518" style="fill:none;stroke:white;stroke-width:3.5px;"/>
                </g>
                <g transform="matrix(1,0,0,1,427.423,87.9232)">
                    <path d="M319,443.719L306,441" style="fill:none;stroke:white;stroke-width:3.5px;"/>
                </g>
                <g transform="matrix(1,0,0,1,427.423,87.9232)">
                    <path d="M319,443.719C317.822,448.045 316.244,450.27 314,449" style="fill:none;stroke:white;stroke-width:3.5px;"/>
                </g>
                <g transform="matrix(1,0,0,1,427.423,87.9232)">
                    <path d="M314,449L306,441" style="fill:none;stroke:white;stroke-width:3.5px;"/>
                </g>
                <g transform="matrix(1,0,0,1,427.423,87.9232)">
                    <path d="M314,449C293.928,451.236 287.872,440.344 286,429" style="fill:none;stroke:white;stroke-width:3.5px;"/>
                </g>
                <g transform="matrix(1,0,0,1,427.423,87.9232)">
                    <path d="M306,427C305.772,424.146 302.815,423.117 297,424" style="fill:none;stroke:white;stroke-width:3.5px;"/>
                </g>
                <g transform="matrix(1,0,0,1,427.423,87.9232)">
                    <path d="M306,449C304.161,456.655 303.632,463.205 304,469" style="fill:none;stroke:white;stroke-width:3.5px;"/>
                </g>
                <g transform="matrix(1,0,0,1,427.423,87.9232)">
                    <path d="M304,469C308.834,473.495 312.871,480.841 315,495" style="fill:none;stroke:white;stroke-width:3.5px;"/>
                </g>
                <g transform="matrix(1,0,0,1,427.423,87.9232)">
                    <path d="M315,495C323.492,500.165 329.445,502.805 329,512" style="fill:none;stroke:white;stroke-width:3.5px;"/>
                </g>
                <g transform="matrix(1,0,0,1,427.423,87.9232)">
                    <path d="M326.687,503.5C315.811,503.609 309.634,506.127 310,512" style="fill:none;stroke:white;stroke-width:3.5px;"/>
                </g>
                <g transform="matrix(1,0,0,1,427.423,87.9232)">
                    <path d="M364,512L190,512" style="fill:none;stroke:white;stroke-width:3.5px;"/>
                </g>
                <g transform="matrix(1,0,0,1,427.423,87.9232)">
                    <path d="M364,512L364,522" style="fill:none;stroke:white;stroke-width:3.5px;"/>
                </g>
                <g transform="matrix(1,0,0,1,427.423,87.9232)">
                    <path d="M364,522L190,522" style="fill:none;stroke:white;stroke-width:3.5px;"/>
                </g>
                <g transform="matrix(1,0,0,1,427.423,87.9232)">
                    <path d="M190,522L190,512" style="fill:none;stroke:white;stroke-width:3.5px;"/>
                </g>
                <g transform="matrix(1,0,0,1,427.423,87.9232)">
                    <path d="M303.89,512L303.89,488" style="fill:none;stroke:white;stroke-width:3.5px;"/>
                </g>
                <g transform="matrix(1,0,0,1,427.423,87.9232)">
                    <path d="M304,488L261,488" style="fill:none;stroke:white;stroke-width:3.5px;"/>
                </g>
                <g transform="matrix(1,0,0,1,427.423,87.9232)">
                    <path d="M261,488L261,512" style="fill:none;stroke:white;stroke-width:3.5px;"/>
                </g>
                <g transform="matrix(1,0,0,1,427.423,87.9232)">
                    <path d="M261,501C253.364,496.456 246.086,494.53 239,494" style="fill:none;stroke:white;stroke-width:3.5px;"/>
                </g>
                <g transform="matrix(1,0,0,1,427.423,87.9232)">
                    <path d="M324.614,522C322.461,527.965 315.769,530.531 304.945,530" style="fill:none;stroke:white;stroke-width:3.5px;"/>
                </g>
                <g transform="matrix(1,0,0,1,427.423,87.9232)">
                    <path d="M304.945,530L304.945,549" style="fill:none;stroke:white;stroke-width:3.5px;"/>
                </g>
                <g transform="matrix(1,0,0,1,427.423,87.9232)">
                    <path d="M304.945,549C323.761,568.924 330.276,591.215 329.023,615" style="fill:none;stroke:white;stroke-width:3.5px;"/>
                </g>
                <g transform="matrix(1,0,0,1,427.423,87.9232)">
                    <path d="M329.173,615C331.344,618.832 339.125,618.699 343,624" style="fill:none;stroke:white;stroke-width:3.5px;"/>
                </g>
                <g transform="matrix(1,0,0,1,427.423,87.9232)">
                    <path d="M227,522L336.086,652" style="fill:none;stroke:white;stroke-width:3.5px;"/>
                </g>
                <g transform="matrix(-1,0,0,1,990.509,87.9232)">
                    <path d="M227,522L336.086,652" style="fill:none;stroke:white;stroke-width:3.5px;"/>
                </g>
                <g transform="matrix(1,0,0,1,427.423,87.9232)">
                    <path d="M273,423C264.768,432.685 258.294,443.098 253,454" style="fill:none;stroke:white;stroke-width:3.5px;"/>
                </g>
                <g transform="matrix(1,0,0,1,427.423,87.9232)">
                    <path d="M253,454C245.403,462.291 239.56,470.995 235,480" style="fill:none;stroke:white;stroke-width:3.5px;"/>
                </g>
                <g transform="matrix(1,0,0,1,427.423,87.9232)">
                    <path d="M235,480C227.829,487.111 223.936,497.548 224,512" style="fill:none;stroke:white;stroke-width:3.5px;"/>
                </g>
                <g transform="matrix(1,0,0,1,427.423,87.9232)">
                    <path d="M239,536.301L240,553" style="fill:none;stroke:white;stroke-width:3.5px;"/>
                </g>
                <g transform="matrix(1,0,0,1,427.423,87.9232)">
                    <path d="M240,553C235.451,570.823 234.343,587.765 236,604" style="fill:none;stroke:white;stroke-width:3.5px;"/>
                </g>
                <g transform="matrix(1,0,0,1,427.423,87.9232)">
                    <path d="M236,604C234.547,612.37 233.522,620.705 233,629" style="fill:none;stroke:white;stroke-width:3.5px;"/>
                </g>
                <g transform="matrix(1,0,0,1,427.423,87.9232)">
                    <path d="M233,629C229.413,633.445 227.598,638.095 228,643" style="fill:none;stroke:white;stroke-width:3.5px;"/>
                </g>
                <g transform="matrix(1,0,0,1,427.423,87.9232)">
                    <path d="M228,643C228.289,646.691 251.523,648.168 253,631" style="fill:none;stroke:white;stroke-width:3.5px;"/>
                </g>
                <g transform="matrix(1,0,0,1,427.423,87.9232)">
                    <path d="M253,631C253.302,619.529 269.531,613.046 281.543,600" style="fill:none;stroke:white;stroke-width:3.5px;"/>
                </g>
                <g transform="matrix(1,0,0,1,427.423,87.9232)">
                    <path d="M281.543,600C284.537,602.392 289.542,606.99 298.543,607.259" style="fill:none;stroke:white;stroke-width:3.5px;"/>
                </g>
                <g transform="matrix(1,0,0,1,427.423,87.9232)">
                    <path d="M298.543,607.259C304.947,618.064 308.034,627.678 310,628" style="fill:none;stroke:white;stroke-width:3.5px;"/>
                </g>
                <g transform="matrix(1,0,0,1,427.423,87.9232)">
                    <path d="M310,628C328.194,632.249 346.432,629.313 343,624" style="fill:none;stroke:white;stroke-width:3.5px;"/>
                </g>
            </g>
            <g transform="matrix(1,0,0,1,-0.387483,0)">
                <g transform="matrix(1.26697,-0.339483,0.339483,1.26697,299.495,144.673)">
                    <path d="M327.5,76L341.532,119.186L386.941,119.186L350.204,145.877L364.237,189.064L327.5,162.373L290.763,189.064L304.796,145.877L268.059,119.186L313.468,119.186L327.5,76Z" style="fill:none;stroke:white;stroke-width:2.67px;"/>
                </g>
                <g transform="matrix(0.866812,-0.232262,0.232262,0.866812,445.396,164.979)">
                    <path d="M327.5,76L341.532,119.186L386.941,119.186L350.204,145.877L364.237,189.064L327.5,162.373L290.763,189.064L304.796,145.877L268.059,119.186L313.468,119.186L327.5,76Z" style="fill:none;stroke:white;stroke-width:3.9px;"/>
                </g>
            </g>
            <g transform="matrix(1,0,0,1,-10,0)">
                <g>
                    <g transform="matrix(1,0,0,1,427.423,87.9232)">
                        <path d="M424,399.007C426.88,397.908 429.875,397.86 433,399.007" style="fill:none;stroke:white;stroke-width:3.5px;"/>
                    </g>
                    <g transform="matrix(1,0,0,1,427.423,87.9232)">
                        <path d="M424,399.007C426.333,410.608 429.29,411.357 433,399.007" style="fill:none;stroke:white;stroke-width:3.5px;"/>
                    </g>
                    <g transform="matrix(1,0,0,1,427.423,87.9232)">
                        <path d="M421,393.756C423.341,391.182 425.83,391.016 428.5,393.756" style="fill:none;stroke:white;stroke-width:3.5px;"/>
                    </g>
                    <g transform="matrix(1,0,0,1,427.423,87.9232)">
                        <path d="M428.5,393.756L424,399.007" style="fill:none;stroke:white;stroke-width:3.5px;"/>
                    </g>
                    <g transform="matrix(1,0,0,1,427.423,87.9232)">
                        <path d="M437,392.76C439.785,391.961 442.203,392.267 444,394.443" style="fill:none;stroke:white;stroke-width:3.5px;"/>
                    </g>
                    <g transform="matrix(1,0,0,1,427.423,87.9232)">
                        <path d="M416,391C413.58,383.361 415.586,380.123 424.75,384" style="fill:none;stroke:white;stroke-width:3.5px;"/>
                    </g>
                    <g transform="matrix(1,0,0,1,427.423,87.9232)">
                        <path d="M424.75,384C431.56,381.521 438.568,381.313 446,386" style="fill:none;stroke:white;stroke-width:3.5px;"/>
                    </g>
                    <g transform="matrix(1,0,0,1,427.423,87.9232)">
                        <path d="M446,386C449.106,380.477 456.427,380.2 456,390" style="fill:none;stroke:white;stroke-width:3.5px;"/>
                    </g>
                    <g transform="matrix(1,0,0,1,427.423,87.9232)">
                        <path d="M456,390C456.23,393.678 455.811,400.185 455,401.006" style="fill:none;stroke:white;stroke-width:3.5px;"/>
                    </g>
                    <g transform="matrix(1,0,0,1,427.423,87.9232)">
                        <path d="M455,401.006C451.208,408.583 445.557,413.421 438,415.454" style="fill:none;stroke:white;stroke-width:3.5px;"/>
                    </g>
                    <g transform="matrix(1,0,0,1,427.423,87.9232)">
                        <path d="M455.531,400.007C458.284,404.21 460.364,413.898 461,435.36" style="fill:none;stroke:white;stroke-width:3.5px;"/>
                    </g>
                    <g transform="matrix(1,0,0,1,427.423,87.9232)">
                        <path d="M461,435.36C466.33,443.222 471.66,451.548 477,467" style="fill:none;stroke:white;stroke-width:3.5px;"/>
                    </g>
                    <g transform="matrix(1,0,0,1,427.423,87.9232)">
                        <path d="M477,467C463.014,474.504 461.352,488.328 479,486" style="fill:none;stroke:white;stroke-width:3.5px;"/>
                    </g>
                    <g transform="matrix(1,0,0,1,427.423,87.9232)">
                        <path d="M477,467C490.85,466.274 493.18,484.97 473,500" style="fill:none;stroke:white;stroke-width:3.5px;"/>
                    </g>
                    <g transform="matrix(1,0,0,1,427.423,87.9232)">
                        <path d="M473,500L464,503.5" style="fill:none;stroke:white;stroke-width:3.5px;"/>
                    </g>
                    <g transform="matrix(1,0,0,1,427.423,87.9232)">
                        <path d="M464,503.5L464,517" style="fill:none;stroke:white;stroke-width:3.5px;"/>
                    </g>
                    <g transform="matrix(1,0,0,1,427.423,87.9232)">
                        <path d="M464,517C475.988,528.719 483.872,545.879 484,576" style="fill:none;stroke:white;stroke-width:3.5px;"/>
                    </g>
                    <g transform="matrix(1,0,0,1,427.423,87.9232)">
                        <path d="M484,576C485.177,580.626 487.144,584.597 491,587" style="fill:none;stroke:white;stroke-width:3.5px;"/>
                    </g>
                    <g transform="matrix(1,0,0,1,427.423,87.9232)">
                        <path d="M491,587C495.659,588.872 499.636,590.933 500,594" style="fill:none;stroke:white;stroke-width:3.5px;"/>
                    </g>
                    <g transform="matrix(1,0,0,1,427.423,87.9232)">
                        <path d="M500,594C500.576,598.389 482.427,601.422 472.569,597" style="fill:none;stroke:white;stroke-width:3.5px;"/>
                    </g>
                    <g transform="matrix(1,0,0,1,427.423,87.9232)">
                        <path d="M472.569,597C465.646,590.823 461.652,584.887 458.266,579" style="fill:none;stroke:white;stroke-width:3.5px;"/>
                    </g>
                    <g transform="matrix(1,0,0,1,427.423,87.9232)">
                        <path d="M458.266,579C449.212,577.451 443.051,574.496 438,571" style="fill:none;stroke:white;stroke-width:3.5px;"/>
                    </g>
                    <g transform="matrix(1,0,0,1,427.423,87.9232)">
                        <path d="M438,571C432.32,572.987 428.344,578.088 419,583" style="fill:none;stroke:white;stroke-width:3.5px;"/>
                    </g>
                    <g transform="matrix(1,0,0,1,427.423,87.9232)">
                        <path d="M419,583C417.549,584.821 419.099,583.768 412.077,597" style="fill:none;stroke:white;stroke-width:3.5px;"/>
                    </g>
                    <g transform="matrix(1,0,0,1,427.423,87.9232)">
                        <path d="M412.077,597C394.006,611.732 369.82,603.218 389.196,589" style="fill:none;stroke:white;stroke-width:3.5px;"/>
                    </g>
                    <g transform="matrix(1,0,0,1,427.423,87.9232)">
                        <path d="M389.196,589C391.537,576.275 392.614,579.271 394.118,572" style="fill:none;stroke:white;stroke-width:3.5px;"/>
                    </g>
                    <g transform="matrix(1,0,0,1,427.423,87.9232)">
                        <path d="M394.118,572C393.51,545.717 396.535,530.231 402,522" style="fill:none;stroke:white;stroke-width:3.5px;"/>
                    </g>
                    <g transform="matrix(1,0,0,1,427.423,87.9232)">
                        <path d="M402,522L402.775,498" style="fill:none;stroke:white;stroke-width:3.5px;"/>
                    </g>
                    <g transform="matrix(1,0,0,1,427.423,87.9232)">
                        <path d="M402.775,498C383.432,490.516 384.005,473.563 396,451.18" style="fill:none;stroke:white;stroke-width:3.5px;"/>
                    </g>
                    <g transform="matrix(1,0,0,1,427.423,87.9232)">
                        <path d="M396,451.18C399.244,442.594 404.687,435.014 411,429" style="fill:none;stroke:white;stroke-width:3.5px;"/>
                    </g>
                    <g transform="matrix(1,0,0,1,427.423,87.9232)">
                        <path d="M411,429C411.798,416.166 412.378,403.441 416,391" style="fill:none;stroke:white;stroke-width:3.5px;"/>
                    </g>
                    <g transform="matrix(1,0,0,1,427.423,87.9232)">
                        <path d="M398,460C410.851,459.198 429.873,469.723 424,484" style="fill:none;stroke:white;stroke-width:3.5px;"/>
                    </g>
                    <g transform="matrix(1,0,0,1,427.423,87.9232)">
                        <path d="M424,484C422.055,487.072 414.223,485.52 411.443,483.49" style="fill:none;stroke:white;stroke-width:3.5px;"/>
                    </g>
                    <g transform="matrix(1,0,0,1,427.423,87.9232)">
                        <path d="M411.443,483.49C406.241,481.562 404.407,483.162 403.5,485.733" style="fill:none;stroke:white;stroke-width:3.5px;"/>
                    </g>
                    <g transform="matrix(1,0,0,1,375.018,87.1761)">
                        <path d="M502.031,451.787C502.338,451.255 502.5,450.651 502.5,450.037C502.5,448.105 500.932,446.537 499,446.537C497.068,446.537 495.5,448.105 495.5,450.037C495.5,450.651 495.662,451.255 495.969,451.787L502.031,451.787Z" style="fill:none;stroke:white;stroke-width:3.5px;"/>
                    </g>
                    <g transform="matrix(0.866025,-0.5,0.5,0.866025,203.758,399.576)">
                        <path d="M502.031,451.787C502.338,451.255 502.5,450.651 502.5,450.037C502.5,448.105 500.932,446.537 499,446.537C497.068,446.537 495.5,448.105 495.5,450.037C495.5,450.651 495.662,451.255 495.969,451.787L502.031,451.787Z" style="fill:none;stroke:white;stroke-width:3.5px;"/>
                    </g>
                    <g transform="matrix(0.707107,-0.707107,0.707107,0.707107,178.852,582.737)">
                        <path d="M502.031,451.787C502.338,451.255 502.5,450.651 502.5,450.037C502.5,448.105 500.932,446.537 499,446.537C497.068,446.537 495.5,448.105 495.5,450.037C495.5,450.651 495.662,451.255 495.969,451.787L502.031,451.787Z" style="fill:none;stroke:white;stroke-width:3.5px;"/>
                    </g>
                    <g transform="matrix(-0.707107,-0.707107,0.707107,-0.707107,883.761,1255.49)">
                        <path d="M502.031,451.787C502.338,451.255 502.5,450.651 502.5,450.037C502.5,448.105 500.932,446.537 499,446.537C497.068,446.537 495.5,448.105 495.5,450.037C495.5,450.651 495.662,451.255 495.969,451.787L502.031,451.787Z" style="fill:none;stroke:white;stroke-width:3.5px;"/>
                    </g>
                    <g transform="matrix(-0.866025,-0.5,0.5,-0.866025,1067.55,1232.64)">
                        <path d="M502.031,451.787C502.338,451.255 502.5,450.651 502.5,450.037C502.5,448.105 500.932,446.537 499,446.537C497.068,446.537 495.5,448.105 495.5,450.037C495.5,450.651 495.662,451.255 495.969,451.787L502.031,451.787Z" style="fill:none;stroke:white;stroke-width:3.5px;"/>
                    </g>
                    <g transform="matrix(-1,1.11022e-16,-1.11022e-16,-1,1373.02,1046.06)">
                        <path d="M502.031,451.787C502.338,451.255 502.5,450.651 502.5,450.037C502.5,448.105 500.932,446.537 499,446.537C497.068,446.537 495.5,448.105 495.5,450.037C495.5,450.651 495.662,451.255 495.969,451.787L502.031,451.787Z" style="fill:none;stroke:white;stroke-width:3.5px;"/>
                    </g>
                    <g transform="matrix(-0.866025,0.5,-0.5,-0.866025,1545.09,732.198)">
                        <path d="M502.031,451.787C502.338,451.255 502.5,450.651 502.5,450.037C502.5,448.105 500.932,446.537 499,446.537C497.068,446.537 495.5,448.105 495.5,450.037C495.5,450.651 495.662,451.255 495.969,451.787L502.031,451.787Z" style="fill:none;stroke:white;stroke-width:3.5px;"/>
                    </g>
                    <g transform="matrix(0.866025,0.5,-0.5,0.866025,680.795,-98.3667)">
                        <path d="M502.031,451.787C502.338,451.255 502.5,450.651 502.5,450.037C502.5,448.105 500.932,446.537 499,446.537C497.068,446.537 495.5,448.105 495.5,450.037C495.5,450.651 495.662,451.255 495.969,451.787L502.031,451.787Z" style="fill:none;stroke:white;stroke-width:3.5px;"/>
                    </g>
                    <g transform="matrix(0.5,0.866025,-0.866025,0.5,1038.17,-105.785)">
                        <path d="M502.031,451.787C502.338,451.255 502.5,450.651 502.5,450.037C502.5,448.105 500.932,446.537 499,446.537C497.068,446.537 495.5,448.105 495.5,450.037C495.5,450.651 495.662,451.255 495.969,451.787L502.031,451.787Z" style="fill:none;stroke:white;stroke-width:3.5px;"/>
                    </g>
                    <g transform="matrix(-0.5,0.866025,-0.866025,-0.5,1536.46,375.795)">
                        <path d="M502.031,451.787C502.338,451.255 502.5,450.651 502.5,450.037C502.5,448.105 500.932,446.537 499,446.537C497.068,446.537 495.5,448.105 495.5,450.037C495.5,450.651 495.662,451.255 495.969,451.787L502.031,451.787Z" style="fill:none;stroke:white;stroke-width:3.5px;"/>
                    </g>
                </g>
                <g transform="matrix(1,0,0,1,427.423,87.9232)">
                    <path d="M419.921,467.962C431.843,443.461 463.832,446.622 471.67,470.634" style="fill:none;stroke:white;stroke-width:3.5px;"/>
                </g>
                <g transform="matrix(1,0,0,1,427.423,87.9232)">
                    <path d="M418.604,485.705C427.376,514.624 465.436,511.503 471.94,485.96" style="fill:none;stroke:white;stroke-width:3.5px;"/>
                </g>
            </g>
            <g transform="matrix(1,0,0,1,-10,0)">
                <g>
                    <g transform="matrix(1,0,0,1,427.423,87.9232)">
                        <path d="M551,350C541.948,359.13 540.53,366.222 559,368" style="fill:none;stroke:white;stroke-width:3.5px;"/>
                    </g>
                    <g transform="matrix(1,0,0,1,427.423,87.9232)">
                        <path d="M559,368C572.989,368.539 602.601,359.165 599,345" style="fill:none;stroke:white;stroke-width:3.5px;"/>
                    </g>
                    <g transform="matrix(1,0,0,1,427.423,87.9232)">
                        <path d="M599,345C597.76,340.427 593.981,339.06 589.502,338.577" style="fill:none;stroke:white;stroke-width:3.5px;"/>
                    </g>
                    <g transform="matrix(1,0,0,1,427.423,87.9232)">
                        <path d="M589.505,338.577L593,350" style="fill:none;stroke:white;stroke-width:3.5px;"/>
                    </g>
                    <g transform="matrix(1,0,0,1,427.423,87.9232)">
                        <path d="M593,350C586.613,363.221 555.55,370.139 553,360" style="fill:none;stroke:white;stroke-width:3.5px;"/>
                    </g>
                    <g transform="matrix(1,0,0,1,427.423,87.9232)">
                        <path d="M553,360L551,350" style="fill:none;stroke:white;stroke-width:3.5px;"/>
                    </g>
                    <g transform="matrix(1,0,0,1,427.423,87.9232)">
                        <path d="M551,350C548.973,338.361 554.707,331.984 566.272,329.561" style="fill:none;stroke:white;stroke-width:3.5px;"/>
                    </g>
                    <g transform="matrix(1,0,0,1,427.423,87.9232)">
                        <path d="M566,329.561C582.052,326.447 585.937,325.612 589.505,338.577" style="fill:none;stroke:white;stroke-width:3.5px;"/>
                    </g>
                    <g transform="matrix(1,0,0,1,427.423,87.9232)">
                        <path d="M590.487,341.788C577.522,355.387 564.719,358.016 552,355" style="fill:none;stroke:white;stroke-width:3.5px;"/>
                    </g>
                    <g transform="matrix(1,0,0,1,427.423,87.9232)">
                        <path d="M555.921,346.225C564.032,339.881 572.386,335.291 581.008,333.076" style="fill:none;stroke:white;stroke-width:3.5px;"/>
                    </g>
                    <g transform="matrix(1,0,0,1,427.423,87.9232)">
                        <path d="M556.011,346.004C557.164,333.726 565.006,328.909 580.919,333.099" style="fill:none;stroke:white;stroke-width:3.5px;"/>
                    </g>
                    <g transform="matrix(1,0,0,1,427.423,87.9232)">
                        <path d="M593,357.642C597.108,369.58 579.58,383.032 579.151,386" style="fill:none;stroke:white;stroke-width:3.5px;"/>
                    </g>
                    <g transform="matrix(1,0,0,1,427.423,87.9232)">
                        <path d="M579.151,386C576.244,399.868 565.238,396.755 566,386.678" style="fill:none;stroke:white;stroke-width:3.5px;"/>
                    </g>
                    <g transform="matrix(1,0,0,1,427.423,87.9232)">
                        <path d="M577.753,390C573.845,389.017 570.13,388.99 566.202,390" style="fill:none;stroke:white;stroke-width:3.5px;"/>
                    </g>
                    <g transform="matrix(1,0,0,1,427.423,87.9232)">
                        <path d="M575,389.252L575,373" style="fill:none;stroke:white;stroke-width:3.5px;"/>
                    </g>
                    <g transform="matrix(1,0,0,1,427.423,87.9232)">
                        <path d="M575,373C576.31,368.557 578.706,368.119 582,371" style="fill:none;stroke:white;stroke-width:3.5px;"/>
                    </g>
                    <g transform="matrix(1,0,0,1,427.423,87.9232)">
                        <path d="M566,386.678L566,374" style="fill:none;stroke:white;stroke-width:3.5px;"/>
                    </g>
                    <g transform="matrix(1,0,0,1,427.423,87.9232)">
                        <path d="M566,374C566.349,371.006 562.514,371.165 561,371.821" style="fill:none;stroke:white;stroke-width:3.5px;"/>
                    </g>
                    <g transform="matrix(1,0,0,1,427.423,87.9232)">
                        <path d="M565.962,384C554.404,375.587 556.973,369.071 553.421,367.185" style="fill:none;stroke:white;stroke-width:3.5px;"/>
                    </g>
                    <g transform="matrix(1,0,0,1,427.423,87.9232)">
                        <path d="M595.471,355.473C599.233,361.82 602.754,368.511 606,375.593" style="fill:none;stroke:white;stroke-width:3.5px;"/>
                    </g>
                    <g transform="matrix(1,0,0,1,427.423,87.9232)">
                        <path d="M619,446.537C617.57,447.961 620.011,465.252 621,474.59" style="fill:none;stroke:white;stroke-width:3.5px;"/>
                    </g>
                    <g transform="matrix(1,0,0,1,427.423,87.9232)">
                        <path d="M621.11,474.59C631.985,481.953 631.008,535.802 633,539.5" style="fill:none;stroke:white;stroke-width:3.5px;"/>
                    </g>
                    <g transform="matrix(1,0,0,1,427.423,87.9232)">
                        <path d="M633,539.5C634.574,548.623 642.87,552.1 643.062,558" style="fill:none;stroke:white;stroke-width:3.5px;"/>
                    </g>
                    <g transform="matrix(1,0,0,1,427.423,87.9232)">
                        <path d="M643.062,558C646.569,564.859 620.544,566.866 614,558" style="fill:none;stroke:white;stroke-width:3.5px;"/>
                    </g>
                    <g transform="matrix(1,0,0,1,427.423,87.9232)">
                        <path d="M614,558C612.501,550.025 608.912,543.083 605,536.301" style="fill:none;stroke:white;stroke-width:3.5px;"/>
                    </g>
                    <g transform="matrix(1,0,0,1,427.423,87.9232)">
                        <path d="M605,536.301C593.341,530.807 588.698,525.404 584,520" style="fill:none;stroke:white;stroke-width:3.5px;"/>
                    </g>
                    <g transform="matrix(1,0,0,1,427.423,87.9232)">
                        <path d="M584,520C578.631,525.693 565.377,529.98 563.156,531" style="fill:none;stroke:white;stroke-width:3.5px;"/>
                    </g>
                    <g transform="matrix(1,0,0,1,427.423,87.9232)">
                        <path d="M563.156,531C562.031,536.415 560.128,541.104 557,544.65" style="fill:none;stroke:white;stroke-width:3.5px;"/>
                    </g>
                    <g transform="matrix(1,0,0,1,427.423,87.9232)">
                        <path d="M557,544.65C539.924,550.127 520.026,549.944 522,544.65" style="fill:none;stroke:white;stroke-width:3.5px;"/>
                    </g>
                    <g transform="matrix(1,0,0,1,427.423,87.9232)">
                        <path d="M522,544.65C523.383,539.404 534.62,536.978 536.156,531" style="fill:none;stroke:white;stroke-width:3.5px;"/>
                    </g>
                    <g transform="matrix(1,0,0,1,427.423,87.9232)">
                        <path d="M536.156,531C536.257,517.566 538.372,507.513 542,500" style="fill:none;stroke:white;stroke-width:3.5px;"/>
                    </g>
                    <g transform="matrix(1,0,0,1,427.423,87.9232)">
                        <path d="M542,500C543.235,491.751 544.31,484.5 547.351,476.839" style="fill:none;stroke:white;stroke-width:3.5px;"/>
                    </g>
                    <g transform="matrix(1,0,0,1,428.747,81.6423)">
                        <circle cx="553.676" cy="459" r="9" style="fill:none;stroke:white;stroke-width:3.5px;"/>
                    </g>
                    <g transform="matrix(1,0,0,1,427.486,87.8092)">
                        <path d="M634.937,401.066L634.937,394.757L647.12,386.678L653.437,397.722" style="fill:none;stroke:white;stroke-width:3.5px;"/>
                    </g>
                    <g transform="matrix(0.5,-0.866025,-0.866025,-0.5,1092.24,1239.29)">
                        <path d="M634.956,401.016L634.937,394.757L647.12,386.678L653.526,397.67" style="fill:none;stroke:white;stroke-width:3.5px;"/>
                    </g>
                    <g transform="matrix(1,0,0,1,427.423,87.9232)">
                        <path d="M614,419.158C613.922,419.172 615.429,422.498 603.93,420.961" style="fill:none;stroke:white;stroke-width:3.5px;"/>
                    </g>
                    <g transform="matrix(1,0,0,1,427.423,87.9232)">
                        <path d="M603.93,420.961C586.768,421.146 581.329,436.725 606.961,438.5" style="fill:none;stroke:white;stroke-width:3.5px;"/>
                    </g>
                    <g transform="matrix(1,0,0,1,427.423,87.9232)">
                        <path d="M537.62,433C542.976,436.243 546.819,440.314 541.562,449.355" style="fill:none;stroke:white;stroke-width:3.5px;"/>
                    </g>
                    <g transform="matrix(1,0,0,1,427.423,87.9232)">
                        <path d="M541.612,449.268C534.745,454.59 526.192,443.942 527.958,435.36" style="fill:none;stroke:white;stroke-width:3.5px;"/>
                    </g>
                    <g transform="matrix(1,0,0,1,427.423,87.9232)">
                        <path d="M527.958,435.36C528.708,428.14 539.512,420.304 541.562,415.454" style="fill:none;stroke:white;stroke-width:3.5px;"/>
                    </g>
                    <g transform="matrix(1,0,0,1,427.423,87.9232)">
                        <path d="M541.562,415.454C545.441,400.726 549.255,390.992 553,386.678" style="fill:none;stroke:white;stroke-width:3.5px;"/>
                    </g>
                    <g transform="matrix(1,0,0,1,427.423,87.9232)">
                        <path d="M553,386.678C554.078,380.563 553.943,373.953 553.421,367.185" style="fill:none;stroke:white;stroke-width:3.5px;"/>
                    </g>
                </g>
                <g>
                    <g transform="matrix(1,0,0,1,427.423,87.9232)">
                        <path d="M579.855,433.161L590.376,426.426" style="fill:none;stroke:white;stroke-width:3.5px;"/>
                    </g>
                    <g transform="matrix(1,0,0,1,427.423,87.9232)">
                        <path d="M597.518,421.849L635,397.827" style="fill:none;stroke:white;stroke-width:3.5px;"/>
                    </g>
                    <g transform="matrix(1,0,0,1,427.423,87.9232)">
                        <path d="M582.675,437.436L590.396,432.494" style="fill:none;stroke:white;stroke-width:3.5px;"/>
                    </g>
                    <g transform="matrix(1,0,0,1,427.423,87.9232)">
                        <path d="M607.812,421.333L637.483,402.417" style="fill:none;stroke:white;stroke-width:3.5px;"/>
                    </g>
                </g>
                <g>
                    <g transform="matrix(1,0,0,1,427.423,87.9232)">
                        <path d="M541.875,436.307C546.216,434.762 550.616,434.573 555.081,435.857" style="fill:none;stroke:white;stroke-width:3.5px;"/>
                    </g>
                    <g transform="matrix(1,0,0,1,427.423,87.9232)">
                        <path d="M555.081,435.857C561.414,426.027 573.356,426.199 579.855,433.161" style="fill:none;stroke:white;stroke-width:3.5px;"/>
                    </g>
                    <g transform="matrix(1,0,0,1,427.423,87.9232)">
                        <path d="M582.675,437.436C586.571,446.957 581.319,457.709 569.863,459.186" style="fill:none;stroke:white;stroke-width:3.5px;"/>
                    </g>
                    <g transform="matrix(1,0,0,1,427.423,87.9232)">
                        <path d="M569.863,459.186C568.203,474.286 547.164,484.381 533.555,469.946" style="fill:none;stroke:white;stroke-width:3.5px;"/>
                    </g>
                    <g transform="matrix(1,0,0,1,427.423,87.9232)">
                        <path d="M533.564,469.955C527.485,462.674 526.668,454.767 530.559,446.298" style="fill:none;stroke:white;stroke-width:3.5px;"/>
                    </g>
                </g>
                <g>
                    <g transform="matrix(1,0,0,1,427.423,87.9232)">
                        <path d="M628.258,402.148C622.673,392.416 615.254,383.564 606,375.593" style="fill:none;stroke:white;stroke-width:3.5px;"/>
                    </g>
                    <g transform="matrix(1,0,0,1,427.423,87.9232)">
                        <path d="M630.595,406.808C638.024,423.427 634.958,436.909 619,446.537" style="fill:none;stroke:white;stroke-width:3.5px;"/>
                    </g>
                </g>
                <g>
                    <g transform="matrix(2,0,0,2,-210.577,-309.046)">
                        <circle cx="638.5" cy="396.5" r="0.5" style="fill:white;stroke:white;stroke-width:0.5px;"/>
                    </g>
                    <g transform="matrix(2,0,0,2,-207.086,-311.061)">
                        <circle cx="638.5" cy="396.5" r="0.5" style="fill:white;stroke:white;stroke-width:0.5px;"/>
                    </g>
                    <g transform="matrix(2,0,0,2,-203.595,-313.077)">
                        <circle cx="638.5" cy="396.5" r="0.5" style="fill:white;stroke:white;stroke-width:0.5px;"/>
                    </g>
                    <g transform="matrix(2,0,0,2,-204.926,-307.32)">
                        <circle cx="638.5" cy="396.5" r="0.5" style="fill:white;stroke:white;stroke-width:0.5px;"/>
                    </g>
                    <g transform="matrix(2,0,0,2,-201.551,-309.536)">
                        <circle cx="638.5" cy="396.5" r="0.5" style="fill:white;stroke:white;stroke-width:0.5px;"/>
                    </g>
                    <g transform="matrix(2,0,0,2,-208.417,-305.304)">
                        <circle cx="638.5" cy="396.5" r="0.5" style="fill:white;stroke:white;stroke-width:0.5px;"/>
                    </g>
                </g>
            </g>
            <g>
                <g>
                    <g transform="matrix(1,0,0,1,427.423,87.9232)">
                        <path d="M19,382.356L115.866,355.473C112.477,340.723 110.342,328.674 109.31,319C271.592,233.731 444.269,194.822 627.055,201C631.379,211.763 634.672,222.847 637.598,234.046L752,209L722,247L770.581,264L621.11,299L640.706,277C468.562,287.843 298.61,315.596 136,400.007" style="fill:none;stroke:white;stroke-width:3.5px;"/>
                    </g>
                    <g transform="matrix(1,0,0,1,427.423,87.9232)">
                        <path d="M136,400.007L163,412.077L23.901,452.695L55,408.23L19,382.356" style="fill:none;stroke:white;stroke-width:3.5px;"/>
                    </g>
                    <g transform="matrix(1,0,0,1,427.423,87.9232)">
                        <path d="M109.31,319C112.586,348.044 120.02,375.552 136,400.007" style="fill:none;stroke:white;stroke-width:3.5px;"/>
                    </g>
                    <g transform="matrix(1,0,0,1,427.423,87.9232)">
                        <path d="M627.055,201C637.504,226.078 642.236,251.471 640.706,277" style="fill:none;stroke:white;stroke-width:3.5px;"/>
                    </g>
                </g>
            </g>
            <g transform="matrix(1,0,0,1,427.423,87.9232)">
                <path d="M386.659,95.818C510.392,90.727 610.502,149.563 668.909,227.191" style="fill:none;stroke:white;stroke-width:3.5px;"/>
            </g>
            <g transform="matrix(1,0,0,1,427.423,87.9232)">
                <path d="M702.017,280.055C712.768,301.903 721.369,324.177 727.099,346.964" style="fill:none;stroke:white;stroke-width:3.5px;"/>
            </g>
            <g transform="matrix(1,0,0,1,427.423,87.9232)">
                <path d="M737.237,415.636C747.916,770.762 283.987,902.937 105.997,585.168" style="fill:none;stroke:white;stroke-width:3.5px;"/>
            </g>
            <g transform="matrix(1,0,0,1,427.423,87.9232)">
                <path d="M80.985,522.781C72.879,495.152 69.181,467.479 68.135,439.779" style="fill:none;stroke:white;stroke-width:3.5px;"/>
            </g>
            <g transform="matrix(1,0,0,1,427.423,87.9232)">
                <path d="M73.95,367.105C96.036,260.38 161.674,170.891 268.886,123.325" style="fill:none;stroke:white;stroke-width:3.5px;"/>
            </g>
            <g transform="matrix(1,0,0,1,427.423,87.9232)">
                <path d="M119.798,313.562C158.04,227.594 219.92,168.822 307.305,139.392" style="fill:none;stroke:white;stroke-width:3.5px;"/>
            </g>
            <g transform="matrix(1,0,0,1,427.423,87.9232)">
                <path d="M367.209,126.231C455.593,117.607 535.298,140.581 604.863,200.471" style="fill:none;stroke:white;stroke-width:3.5px;"/>
            </g>
            <g transform="matrix(1,0,0,1,427.423,87.9232)">
                <path d="M673.149,286.815C681.987,303.788 690.002,321.918 696.1,342.742" style="fill:none;stroke:white;stroke-width:3.5px;"/>
            </g>
            <g transform="matrix(1,0,0,1,427.423,87.9232)">
                <path d="M708.766,435.085C711.037,710.599 324.798,871.101 139.56,586.325" style="fill:none;stroke:white;stroke-width:3.5px;"/>
            </g>
            <g transform="matrix(1,0,0,1,427.423,87.9232)">
                <path d="M104.35,498.252C99.465,476.72 96.95,454.438 96.748,431.423" style="fill:none;stroke:white;stroke-width:3.5px;"/>
            </g>
            <g transform="matrix(1,0,0,1,427.423,87.9232)">
                <path d="M105.227,358.425C107.128,350.555 109.292,342.894 111.725,335.449" style="fill:none;stroke:white;stroke-width:3.5px;"/>
            </g>
            <g transform="matrix(1,0,0,1,417.423,67.9232)">
                <g transform="matrix(0.910536,-0.41343,0.41343,0.910536,-148.562,97.5494)">
                    <text x="151.116px" y="392.041px" style="font-family:'SnellRoundhand-Black', 'Snell Roundhand';font-weight:900;font-size:40px;fill:white;">T</text>
                </g>
                <g transform="matrix(0.917866,-0.39689,0.39689,0.917866,-134.686,103.799)">
                    <text x="183.448px" y="377.318px" style="font-family:'SnellRoundhand-Black', 'Snell Roundhand';font-weight:900;font-size:40px;fill:white;">h</text>
                </g>
                <g transform="matrix(0.92575,-0.378137,0.378137,0.92575,-124.366,104.205)">
                    <text x="203.161px" y="368.783px" style="font-family:'SnellRoundhand-Black', 'Snell Roundhand';font-weight:900;font-size:40px;fill:white;">e</text>
                </g>
                <g transform="matrix(0.940098,-0.340904,0.340904,0.940098,-108.253,99.6788)">
                    <text x="229.512px" y="357.876px" style="font-family:'SnellRoundhand-Black', 'Snell Roundhand';font-weight:900;font-size:40px;fill:white;">M</text>
                </g>
                <g transform="matrix(0.948993,-0.315296,0.315296,0.948993,-94.9211,101.788)">
                    <text x="267.139px" y="344.27px" style="font-family:'SnellRoundhand-Black', 'Snell Roundhand';font-weight:900;font-size:40px;fill:white;">o</text>
                </g>
                <g transform="matrix(0.95424,-0.299041,0.299041,0.95424,-87.7643,101.424)">
                    <text x="287.523px" y="337.483px" style="font-family:'SnellRoundhand-Black', 'Snell Roundhand';font-weight:900;font-size:40px;fill:white;">r</text>
                </g>
                <g transform="matrix(0.959174,-0.282817,0.282817,0.959174,-81.4154,99.8667)">
                    <text x="305.199px" y="331.93px" style="font-family:'SnellRoundhand-Black', 'Snell Roundhand';font-weight:900;font-size:40px;fill:white;">r</text>
                </g>
                <g transform="matrix(0.96449,-0.264119,0.264119,0.96449,-74.8063,96.8971)">
                    <text x="322.953px" y="326.65px" style="font-family:'SnellRoundhand-Black', 'Snell Roundhand';font-weight:900;font-size:40px;fill:white;">o</text>
                </g>
                <g transform="matrix(0.97025,-0.242106,0.242106,0.97025,-67.463,92.7447)">
                    <text x="343.645px" y="320.878px" style="font-family:'SnellRoundhand-Black', 'Snell Roundhand';font-weight:900;font-size:40px;fill:white;">w</text>
                </g>
                <g transform="matrix(0.979536,-0.201271,0.201271,0.979536,-54.6332,83.8456)">
                    <text x="385.001px" y="310.586px" style="font-family:'SnellRoundhand-Black', 'Snell Roundhand';font-weight:900;font-size:40px;fill:white;">F</text>
                </g>
                <g transform="matrix(0.983305,-0.181963,0.181963,0.983305,-48.2013,81.4548)">
                    <text x="419.807px" y="303.412px" style="font-family:'SnellRoundhand-Black', 'Snell Roundhand';font-weight:900;font-size:40px;fill:white;">a</text>
                </g>
                <g transform="matrix(0.98665,-0.162855,0.162855,0.98665,-42.8452,75.9235)">
                    <text x="441.668px" y="299.294px" style="font-family:'SnellRoundhand-Black', 'Snell Roundhand';font-weight:900;font-size:40px;fill:white;">m</text>
                </g>
                <g transform="matrix(0.989265,-0.146133,0.146133,0.989265,-37.9092,72.2948)">
                    <text x="473.11px" y="294.171px" style="font-family:'SnellRoundhand-Black', 'Snell Roundhand';font-weight:900;font-size:40px;fill:white;">i</text>
                </g>
                <g transform="matrix(0.990524,-0.137342,0.137342,0.990524,-35.5882,69.258)">
                    <text x="484.09px" y="292.523px" style="font-family:'SnellRoundhand-Black', 'Snell Roundhand';font-weight:900;font-size:40px;fill:white;">l</text>
                </g>
                <g transform="matrix(0.991241,-0.132064,0.132064,0.991241,-34.091,67.9389)">
                    <text x="495.141px" y="290.979px" style="font-family:'SnellRoundhand-Black', 'Snell Roundhand';font-weight:900;font-size:40px;fill:white;">y</text>
                </g>
                <g transform="matrix(0.994689,-0.102923,0.102923,0.994689,-26.7093,55.8472)">
                    <text x="527.814px" y="286.742px" style="font-family:'SnellRoundhand-Black', 'Snell Roundhand';font-weight:900;font-size:40px;fill:white;">B</text>
                </g>
                <g transform="matrix(0.996267,-0.0863249,0.0863249,0.996267,-22.284,50.0527)">
                    <text x="567.594px" y="282.686px" style="font-family:'SnellRoundhand-Black', 'Snell Roundhand';font-weight:900;font-size:40px;fill:white;">a</text>
                </g>
                <g transform="matrix(0.996952,-0.0780158,0.0780158,0.996952,-20.1061,46.8647)">
                    <text x="589.739px" y="280.758px" style="font-family:'SnellRoundhand-Black', 'Snell Roundhand';font-weight:900;font-size:40px;fill:white;">n</text>
                </g>
                <g transform="matrix(0.997507,-0.0705741,0.0705741,0.997507,-18.1712,43.8283)">
                    <text x="611.165px" y="279.069px" style="font-family:'SnellRoundhand-Black', 'Snell Roundhand';font-weight:900;font-size:40px;fill:white;">d</text>
                </g>
            </g>
        </g>
    </g>
</svg>
